<svg width="22" height="22" viewBox="0 0 22 22" fill="none" xmlns="http://www.w3.org/2000/svg">
<mask id="mask0_1_242" style="mask-type:luminance" maskUnits="userSpaceOnUse" x="0" y="0" width="22" height="22">
<path fill-rule="evenodd" clip-rule="evenodd" d="M0 0.000305176H21.493V21.4941H0V0.000305176Z" fill="white"/>
</mask>
<g mask="url(#mask0_1_242)">
<path fill-rule="evenodd" clip-rule="evenodd" d="M5.10841 18.6753C5.68841 18.6753 6.23541 18.8953 6.81441 19.1283C10.3614 20.7683 14.5564 20.0223 17.2894 17.2903C20.8954 13.6823 20.8954 7.8133 17.2894 4.2073C15.5434 2.46131 13.2214 1.50031 10.7494 1.50031C8.27641 1.50031 5.95341 2.46231 4.20841 4.20831C1.47441 6.94031 0.730407 11.1353 2.35541 14.6483C2.58941 15.2273 2.81541 15.7913 2.81541 16.3773C2.81541 16.9623 2.61441 17.5513 2.43741 18.0713C2.29141 18.4993 2.07041 19.1453 2.21241 19.2873C2.35141 19.4313 3.00141 19.2043 3.43041 19.0573C3.94541 18.8813 4.52941 18.6793 5.10841 18.6753ZM10.7244 21.4943C9.19641 21.4943 7.65841 21.1713 6.21941 20.5053C5.79541 20.3353 5.39841 20.1753 5.11341 20.1753C4.78541 20.1773 4.34441 20.3293 3.91841 20.4763C3.04441 20.7763 1.95641 21.1503 1.15141 20.3483C0.349407 19.5453 0.719407 18.4603 1.01741 17.5873C1.16441 17.1573 1.31541 16.7133 1.31541 16.3773C1.31541 16.1013 1.18241 15.7493 0.978407 15.2423C-0.894593 11.1973 -0.0285933 6.32231 3.14841 3.14731C5.17641 1.11831 7.87541 0.000305176 10.7484 0.000305176C13.6214 0.000305176 16.3214 1.11731 18.3494 3.14631C22.5414 7.3383 22.5414 14.1583 18.3494 18.3503C16.2944 20.4063 13.5274 21.4943 10.7244 21.4943Z" fill="#04364A"/>
</g>
<path fill-rule="evenodd" clip-rule="evenodd" d="M14.6963 12.163C14.1443 12.163 13.6923 11.716 13.6923 11.163C13.6923 10.61 14.1353 10.163 14.6873 10.163H14.6963C15.2483 10.163 15.6963 10.61 15.6963 11.163C15.6963 11.716 15.2483 12.163 14.6963 12.163Z" fill="#04364A"/>
<path fill-rule="evenodd" clip-rule="evenodd" d="M10.6875 12.163C10.1355 12.163 9.6835 11.716 9.6835 11.163C9.6835 10.61 10.1255 10.163 10.6785 10.163H10.6875C11.2395 10.163 11.6875 10.61 11.6875 11.163C11.6875 11.716 11.2395 12.163 10.6875 12.163Z" fill="#04364A"/>
<path fill-rule="evenodd" clip-rule="evenodd" d="M6.67829 12.163C6.12629 12.163 5.67429 11.716 5.67429 11.163C5.67429 10.61 6.11729 10.163 6.66929 10.163H6.67829C7.23029 10.163 7.67829 10.61 7.67829 11.163C7.67829 11.716 7.23029 12.163 6.67829 12.163Z" fill="#04364A"/>
</svg>
